<svg width="36" height="37" viewBox="0 0 36 37" fill="none" xmlns="http://www.w3.org/2000/svg">
<g id="Aparat 1">
<g id="#000000ff">
<path id="Vector" d="M6.28559 5.5275C6.84479 3.56832 8.67698 2.09261 10.6864 1.92555C11.3298 1.86859 11.982 1.93061 12.604 2.10653C13.5628 2.36978 14.5304 2.60645 15.4867 2.88362C11.5987 3.42784 7.95064 5.48574 5.47882 8.55993C5.74397 7.54743 6.00912 6.5362 6.28559 5.5275Z" fill="white"/>
<path id="Vector_2" d="M15.5382 4.25785C18.4423 3.80349 21.4847 4.26164 24.1161 5.58295C27.0943 7.05993 29.5297 9.61901 30.8479 12.6894C32.1825 15.7471 32.3772 19.2845 31.4046 22.4752C30.3842 25.8911 28.0205 28.8627 24.958 30.646C22.1934 32.2787 18.8721 32.9127 15.7029 32.4508C12.2207 31.9635 8.9484 30.1132 6.71911 27.3744C4.58408 24.7938 3.41289 21.4285 3.49331 18.0695C3.54106 14.6979 4.85049 11.3681 7.09611 8.86976C9.2701 6.41193 12.3074 4.7527 15.5382 4.25785ZM12.9785 7.96738C12.3438 8.07875 11.7356 8.342 11.2217 8.73308C9.6584 9.86454 9.14066 12.1857 10.0857 13.8778C10.9992 15.6877 13.3441 16.5381 15.1977 15.7446C17.0738 15.0359 18.1973 12.7932 17.5903 10.858C17.0726 8.89634 14.9539 7.5763 12.9785 7.96738ZM23.0831 9.95566C22.2663 10.1265 21.4997 10.5505 20.9292 11.1656C19.66 12.4717 19.469 14.6663 20.502 16.1724C21.5789 17.8898 23.9954 18.5163 25.7686 17.5532C27.4688 16.7166 28.3849 14.5853 27.7955 12.7679C27.2439 10.7922 25.0674 9.50384 23.0831 9.95566ZM17.0349 16.7558C16.1942 17.0545 15.6765 18.0404 15.929 18.9074C16.1666 19.8857 17.3038 20.5059 18.245 20.154C19.1938 19.8705 19.7467 18.715 19.3597 17.7936C19.033 16.8862 17.9221 16.3888 17.0349 16.7558ZM10.6273 18.7973C9.7916 19.001 9.02757 19.482 8.4759 20.1452C7.24816 21.5601 7.2268 23.8433 8.42563 25.2823C9.59431 26.7973 11.8626 27.2605 13.5251 26.3277C15.2517 25.4494 16.1301 23.2231 15.4402 21.3969C14.8031 19.4554 12.5839 18.2683 10.6273 18.7973ZM20.6792 20.8109C19.9767 21.0159 19.3333 21.4184 18.8331 21.9563C17.53 23.3181 17.3956 25.6152 18.5441 27.1137C19.6764 28.7248 22.0213 29.2576 23.7353 28.3021C25.4971 27.4161 26.368 25.1342 25.6354 23.289C24.9505 21.3298 22.6445 20.1819 20.6792 20.8109Z" fill="white"/>
<path id="Vector_3" d="M27.1509 5.97412C28.2027 6.24243 29.2507 6.53099 30.3013 6.80437C31.0603 6.99674 31.7841 7.34858 32.3836 7.85989C33.7809 9.01287 34.4734 10.9556 34.1039 12.7401C33.8124 13.988 33.4278 15.2119 33.1476 16.4623C32.6336 12.344 30.4358 8.48258 27.1509 5.97412Z" fill="white"/>
<path id="Vector_4" d="M2.18892 20.7874C2.58853 22.8237 3.26335 24.8222 4.38428 26.5763C5.34184 28.1191 6.57837 29.4784 7.99084 30.6098C7.00312 30.3732 6.02545 30.0909 5.0415 29.8378C3.65668 29.4619 2.45407 28.4684 1.82575 27.1699C1.34446 26.2029 1.19115 25.0765 1.38718 24.0147C1.61338 22.9288 1.99163 21.8796 2.18892 20.7874Z" fill="white"/>
<path id="Vector_5" d="M19.9214 33.7733C23.9439 33.2 27.7051 30.9636 30.1329 27.6819C29.8703 28.788 29.5549 29.879 29.2709 30.9801C28.9303 32.29 28.0469 33.4442 26.8732 34.1062C25.7108 34.7807 24.282 34.9567 22.9889 34.5998C21.9672 34.3226 20.9381 34.0707 19.9214 33.7733Z" fill="white"/>
</g>
</g>
</svg>
