<svg width="50" height="50" viewBox="0 0 50 50" fill="none" xmlns="http://www.w3.org/2000/svg">
<g id="Insta">
<path id="Vector" opacity="0.2" d="M24.9706 49.8608C38.6361 49.8608 49.7142 38.7827 49.7142 25.1172C49.7142 11.4516 38.6361 0.373535 24.9706 0.373535C11.305 0.373535 0.226929 11.4516 0.226929 25.1172C0.226929 38.7827 11.305 49.8608 24.9706 49.8608Z" fill="white"/>
<g id="Group">
<g id="Group_2">
<path id="Vector_2" d="M32.6543 15.7573C31.7065 15.7573 30.9618 16.5189 30.9618 17.4667C30.9618 18.4145 31.7234 19.1761 32.6543 19.1761C33.6021 19.1761 34.3637 18.4145 34.3637 17.4667C34.3637 16.5189 33.6021 15.7573 32.6543 15.7573Z" fill="white"/>
<path id="Vector_3" d="M25.0889 17.9407C21.1455 17.9407 17.9467 21.1394 17.9467 25.0828C17.9467 29.0262 21.1455 32.225 25.0889 32.225C29.0323 32.225 32.231 29.0262 32.231 25.0828C32.231 21.1394 29.0323 17.9407 25.0889 17.9407ZM25.0889 29.6694C22.5671 29.6694 20.5193 27.6215 20.5193 25.0997C20.5193 22.578 22.5671 20.5301 25.0889 20.5301C27.6106 20.5301 29.6585 22.578 29.6585 25.0997C29.6585 27.6215 27.6106 29.6694 25.0889 29.6694Z" fill="white"/>
<path id="Vector_4" d="M30.7586 39.587H19.1822C14.3756 39.587 10.4661 35.6774 10.4661 30.8709V19.2945C10.4661 14.4879 14.3756 10.5784 19.1822 10.5784H30.7586C35.5651 10.5784 39.4747 14.4879 39.4747 19.2945V30.8709C39.4747 35.6774 35.5651 39.587 30.7586 39.587ZM19.1822 13.3032C15.8819 13.3032 13.1909 15.9942 13.1909 19.2945V30.8709C13.1909 34.1711 15.8819 36.8621 19.1822 36.8621H30.7586C34.0589 36.8621 36.7499 34.1711 36.7499 30.8709V19.2945C36.7499 15.9942 34.0589 13.3032 30.7586 13.3032H19.1822Z" fill="white"/>
</g>
</g>
</g>
</svg>
