<svg width="45" height="45" viewBox="0 0 45 45" fill="none" xmlns="http://www.w3.org/2000/svg">
<g id="Movie 1" clip-path="url(#clip0_1_52)">
<g id="#000000ff">
<path id="Vector" d="M21.2359 2.29551C21.744 1.16085 22.9916 0.405789 24.2405 0.575575C25.5739 0.684624 26.6774 1.83033 26.8103 3.14582C27.9789 3.16377 29.1157 3.70211 29.8966 4.56346C30.8589 5.62496 31.2494 7.20134 30.7925 8.57067C30.744 8.87435 30.4643 9.16423 30.51 9.45686C31.0459 9.83232 31.5 10.3707 31.5803 11.0401C31.8199 12.2756 30.7925 13.5041 29.5532 13.5883C29.0312 17.5306 28.5549 21.4799 28.026 25.4222C29.6612 24.2572 31.6232 23.5532 33.6309 23.4428C35.8809 23.3323 38.1642 23.9701 40.0265 25.2345C41.7752 26.4133 43.1571 28.1208 43.9435 30.074C44.8602 32.3227 44.964 34.886 44.2523 37.205C43.578 39.4247 42.1616 41.4234 40.2591 42.7638C39.9559 43.0274 39.5599 42.8424 39.3286 42.5829C39.2123 42.2447 39.24 41.8513 39.5862 41.6636C41.508 40.2515 42.8649 38.0967 43.272 35.7474C43.7137 33.4421 43.2097 30.9796 41.9359 29.0084C40.3823 26.5513 37.6076 24.877 34.6846 24.7569C32.5246 24.6105 30.3356 25.2966 28.6186 26.6052C26.8131 27.9648 25.5434 29.9981 25.0948 32.2081C24.6863 34.3766 24.9896 36.6943 26.082 38.6268C27.7089 41.636 31.1068 43.603 34.5434 43.425C35.3216 43.407 36.0776 43.2096 36.8363 43.0633C37.116 43.0122 37.2822 43.3035 37.4414 43.4788C37.4954 43.7949 37.4248 44.1828 37.0842 44.3056C34.4839 45.0773 31.5997 44.7529 29.2112 43.4829C25.1017 43.4263 20.988 43.4802 16.8771 43.4553C16.1723 43.4484 15.5285 42.8079 15.5312 42.1026C15.5215 41.2053 15.5312 40.3081 15.5299 39.4109C12.9863 39.3901 10.4428 39.4219 7.89924 39.3943C6.89816 39.386 5.96355 38.6958 5.63124 37.7599C5.39724 36.9731 5.38616 36.1477 5.25878 35.3415C4.33247 28.0905 3.4034 20.8394 2.47986 13.5883C1.49955 13.5096 0.59678 12.7394 0.45278 11.7566C0.303242 11.0001 0.618934 10.2216 1.17555 9.70671C0.821088 8.62312 1.21432 7.36008 2.11847 6.66576C2.75401 6.13984 3.61386 5.97005 4.42109 6.05288C4.4737 3.61653 7.03109 1.713 9.39186 2.15886C9.9914 2.24444 10.5563 2.47358 11.0769 2.77588C11.8315 2.19751 12.8562 1.85518 13.7894 2.17404C14.67 2.39766 15.372 3.07128 15.732 3.88846C16.2152 3.87051 16.6999 3.87742 17.1817 3.92159C17.5389 2.97465 18.3766 2.20993 19.3888 2.036C20.0119 1.9449 20.6709 1.99735 21.2359 2.29551ZM23.2726 1.98217C22.6745 2.20717 22.3463 2.82834 22.3172 3.44122C22.3491 3.88018 21.8852 4.21423 21.4754 4.07895C21.1071 3.86223 20.8606 3.45226 20.4189 3.35564C19.5826 3.06162 18.5456 3.61376 18.3932 4.49996C18.3406 4.85886 18.2922 5.3199 17.8546 5.40272C17.3963 5.42895 16.9629 5.1722 16.5005 5.15564C16.0145 5.08938 15.5465 5.31024 15.0632 5.27849C14.5412 5.13355 14.6271 4.52067 14.3972 4.14521C13.9445 3.29904 12.6526 3.09889 11.9645 3.76699C11.6986 3.99337 11.4729 4.4061 11.0617 4.31361C10.7086 4.16177 10.4317 3.87742 10.0828 3.71453C8.9654 3.14858 7.51017 3.36254 6.6074 4.23079C6.02447 4.77327 5.70463 5.56423 5.67693 6.35103C5.6714 6.69751 5.84863 7.08401 5.60632 7.39045C5.38617 7.70242 4.92786 7.661 4.62878 7.4926C3.9517 7.14889 3.08355 7.40978 2.63632 8.00196C2.34832 8.33186 2.35801 8.7791 2.37047 9.19045C4.16493 9.19183 5.96078 9.17803 7.75524 9.18493C8.1374 9.14214 8.37416 9.49966 8.45032 9.82542C8.39078 10.165 8.13186 10.4783 7.76493 10.4852C6.04801 10.5059 4.33109 10.477 2.61416 10.4963C1.99663 10.4424 1.50093 11.1865 1.78755 11.7331C1.94124 12.1196 2.36909 12.317 2.77063 12.2852C10.9399 12.2866 19.1105 12.2839 27.2811 12.2866C27.9748 12.2783 28.6685 12.2977 29.3622 12.2811C29.6792 12.2839 30.0102 12.1458 30.1708 11.8601C30.5294 11.3521 30.1625 10.5115 29.5172 10.5046C28.7723 10.4687 28.0246 10.5018 27.2797 10.4894C21.9656 10.4908 16.6528 10.4921 11.34 10.4894C10.9191 10.5363 10.6366 10.1926 10.5452 9.82266C10.6505 9.52174 10.8346 9.14766 11.2195 9.18631C17.1609 9.17113 23.1023 9.18217 29.0437 9.18079C29.79 8.22696 29.8897 6.80242 29.2071 5.78923C28.6006 4.83401 27.4154 4.31637 26.298 4.4337C26.0765 4.45303 25.812 4.45027 25.65 4.27496C25.2942 3.94781 25.5448 3.43708 25.4548 3.02435C25.2679 2.10226 24.1117 1.56116 23.2726 1.98217ZM3.77309 13.5717C4.80324 21.4205 5.78493 29.2762 6.7957 37.1277C6.89955 37.6951 7.44786 38.1326 8.02386 38.123C9.14817 38.1326 10.2725 38.1216 11.3982 38.1243C11.0866 34.6997 10.728 31.2791 10.4289 27.853C9.54001 26.8371 8.80478 25.6417 8.55416 24.3013C8.25232 23.0411 8.45447 21.6607 9.12186 20.5467C9.2714 20.2734 9.51924 20.0498 9.62724 19.7572C9.45832 17.6921 9.2354 15.6326 9.05263 13.5704C7.29278 13.569 5.53293 13.5676 3.77309 13.5717ZM10.3694 13.569C10.4995 15.34 10.6948 17.1027 10.8679 18.8696C11.6889 18.4624 12.6485 18.294 13.5471 18.519C14.5357 18.7219 15.3886 19.3431 16.0103 20.1202C16.6472 19.3265 17.5292 18.6943 18.5442 18.5052C19.4276 18.2981 20.3594 18.4776 21.1666 18.8668C21.3383 17.1013 21.5003 15.3345 21.6776 13.5704C17.9086 13.5676 14.1383 13.5704 10.3694 13.569ZM22.9583 13.5883C22.8296 15.6547 22.5222 17.7087 22.4156 19.7765C22.7589 20.3466 23.1965 20.8794 23.364 21.542C23.9982 23.5007 23.2879 25.6582 22.0528 27.2305C21.888 27.4803 21.6042 27.6874 21.5834 28.0076C21.3466 30.8194 21.0323 33.6257 20.8011 36.4389C21.3591 36.4334 21.9157 36.4348 22.4737 36.4362C22.9389 36.4348 23.4056 36.4348 23.8722 36.432C23.0663 33.0128 24.1283 29.272 26.532 26.7197C26.748 25.6569 26.7951 24.5457 26.982 23.469C27.3822 20.1671 27.8363 16.8722 28.2351 13.5704C26.4766 13.5828 24.7168 13.5359 22.9583 13.5883ZM11.7886 19.8786C10.5079 20.3493 9.7034 21.7256 9.73386 23.059C9.69786 24.5319 10.4359 25.9109 11.4009 26.9848C12.6762 28.3817 14.2975 29.4239 16.002 30.2259C17.2399 29.6558 18.4043 28.9228 19.4552 28.0559C20.7014 27.0151 21.8008 25.6872 22.1843 24.0805C22.3546 23.175 22.3463 22.1894 21.8783 21.3694C21.4076 20.446 20.448 19.724 19.3819 19.7309C18.2603 19.6799 17.2149 20.4335 16.7483 21.4233C16.632 21.64 16.5503 21.9023 16.3274 22.0334C16.0408 22.1052 15.642 22.13 15.4855 21.8208C15.2155 21.288 14.9345 20.7386 14.4471 20.3673C13.7312 19.7434 12.6803 19.5653 11.7886 19.8786ZM11.8482 29.1892C12.1528 32.1667 12.3868 35.1524 12.7274 38.1257C13.6565 38.1257 14.5856 38.1271 15.5146 38.1243C15.4205 37.361 15.9508 36.5521 16.74 36.4596C17.6497 36.4003 18.5636 36.4527 19.4732 36.4348C19.7252 34.0122 19.9509 31.5869 20.1697 29.1616C19.0897 30.0326 17.9003 30.7656 16.65 31.3661C16.3606 31.5013 16.0283 31.6684 15.7126 31.511C14.328 30.9161 13.0265 30.1265 11.8482 29.1892ZM16.8674 37.7185C16.7594 39.1914 16.8231 40.678 16.8355 42.155C17.6525 42.1854 18.4722 42.1785 19.2891 42.1633C19.2794 40.6822 19.2946 39.201 19.2808 37.7213C18.4763 37.7213 17.6719 37.7268 16.8674 37.7185ZM20.6045 37.724C20.5934 39.201 20.6114 40.6794 20.5962 42.1564C21.4311 42.1909 22.2688 42.1647 23.1051 42.1743C23.1134 40.6905 23.1092 39.2066 23.1079 37.7227C22.2729 37.7227 21.4394 37.7213 20.6045 37.724ZM24.3762 38.0802C24.372 39.4454 24.3665 40.8105 24.3789 42.1771C25.3523 42.1688 26.3243 42.1743 27.2977 42.173C26.0363 41.0424 25.0269 39.6441 24.3762 38.0802Z" fill="white"/>
<path id="Vector_2" d="M34.5656 0.774298C35.1485 0.437488 35.9183 0.503746 36.4542 0.904053C36.8543 0.672151 37.3154 0.492703 37.7876 0.574144C38.5089 0.665249 39.0946 1.26295 39.2829 1.94623C39.4089 2.53703 39.3383 3.1789 39.024 3.70206C38.502 4.5993 37.6117 5.22875 36.6729 5.63734C36.4099 5.76295 36.1523 5.57522 35.9197 5.47307C34.9463 4.9651 33.9785 4.21003 33.6766 3.1085C33.4094 2.24991 33.7666 1.21878 34.5656 0.774298ZM34.9934 2.9677C35.2856 3.59577 35.9031 3.96847 36.4722 4.31908C36.9997 4.00712 37.5356 3.65237 37.8637 3.1223C38.0049 2.84485 38.1697 2.49838 38.0063 2.19608C37.908 1.91724 37.5134 1.70743 37.2725 1.95175C37.044 2.23611 36.8543 2.68611 36.4029 2.595C35.8726 2.60881 35.8657 1.77783 35.3285 1.84408C34.8577 1.98902 34.8217 2.58396 34.9934 2.9677Z" fill="white"/>
<path id="Vector_3" d="M36.7754 10.1568C37.2185 9.36719 38.1143 8.81918 39.0351 8.90753C39.6152 8.90891 40.1317 9.21535 40.5609 9.57839C41.0262 9.17946 41.6035 8.8675 42.2363 8.90339C43.3454 8.86198 44.3132 9.74127 44.6082 10.7669C44.8491 11.6172 44.676 12.5476 44.2412 13.3054C43.6528 14.3517 42.6808 15.1233 41.6548 15.7196C41.3114 15.9088 40.9666 16.1269 40.572 16.1876C40.176 16.1379 39.834 15.917 39.4892 15.7376C38.4522 15.1482 37.4718 14.3752 36.8737 13.3275C36.3282 12.3764 36.2077 11.1258 36.7754 10.1568ZM37.782 12.1486C38.1974 13.4393 39.4145 14.2385 40.5609 14.8362C41.5094 14.3448 42.4468 13.7264 43.0311 12.8112C43.3634 12.2591 43.5905 11.5371 43.2831 10.9242C43.0726 10.3831 42.4163 10.0146 41.8583 10.2644C41.4166 10.4107 41.2574 10.8746 41.0082 11.2169C40.6786 11.5178 40.1054 11.3881 39.9517 10.9684C39.7329 10.4687 39.1957 10.0546 38.628 10.2203C37.8305 10.437 37.5217 11.4267 37.782 12.1486Z" fill="white"/>
<path id="Vector_4" d="M31.6592 18.0786C31.6454 17.1965 32.3474 16.3228 33.2446 16.233C33.7043 16.1613 34.1529 16.3421 34.5489 16.5547C34.9698 16.2814 35.5015 16.1337 35.9972 16.2689C36.9665 16.4787 37.5757 17.5706 37.3888 18.5134C37.1008 19.8883 35.8629 20.8476 34.6098 21.3266C34.0062 21.27 33.4911 20.86 33.0065 20.5205C32.2532 19.9407 31.5942 19.0725 31.6592 18.0786ZM32.9483 18.2152C33.0438 19.0725 33.8622 19.568 34.5309 19.978C35.1263 19.6149 35.7646 19.2036 36.0415 18.5355C36.2063 18.1297 36.0914 17.5333 35.5735 17.4864C35.1235 17.572 35.1097 18.2415 34.6154 18.247C34.1515 18.345 33.9618 17.8936 33.7278 17.6024C33.3443 17.2559 32.8708 17.8177 32.9483 18.2152Z" fill="white"/>
<path id="Vector_5" d="M33.6766 25.846C34.8425 25.5023 36.1606 26.5196 36.1122 27.7343C36.1938 28.8759 35.0806 29.896 33.9452 29.7276C32.8071 29.6572 31.9458 28.4328 32.2297 27.3423C32.382 26.6231 32.9663 26.0323 33.6766 25.846ZM33.8594 27.1477C33.39 27.3699 33.3651 28.1236 33.8262 28.3665C34.2069 28.6426 34.7497 28.3182 34.8148 27.8875C34.9269 27.3685 34.344 26.9047 33.8594 27.1477Z" fill="white"/>
<path id="Vector_6" d="M29.286 27.7052C30.4242 27.3739 31.7063 28.3567 31.6897 29.5383C31.7949 30.6054 30.8506 31.6103 29.7803 31.6048C28.7225 31.66 27.7615 30.7227 27.7657 29.6736C27.7228 28.7695 28.3971 27.8957 29.286 27.7052ZM29.4092 29.0304C28.9731 29.2526 28.9565 29.9994 29.4051 30.2133C29.7512 30.4798 30.294 30.2092 30.3757 29.8061C30.564 29.2705 29.8952 28.7087 29.4092 29.0304Z" fill="white"/>
<path id="Vector_7" d="M36.7076 29.0154C36.8986 28.2893 37.5605 27.802 38.2666 27.6295C38.952 27.5481 39.6734 27.8186 40.1096 28.3583C40.7229 29.0913 40.6676 30.2384 40.0459 30.952C39.5432 31.4711 38.7762 31.6905 38.0742 31.5111C37.0122 31.2723 36.3476 30.0327 36.7076 29.0154ZM38.2514 29.0099C37.7931 29.2528 37.7876 29.9651 38.2556 30.2011C38.7402 30.5435 39.4366 29.9389 39.2262 29.4074C39.114 29.0057 38.6142 28.8056 38.2514 29.0099Z" fill="white"/>
<path id="Vector_8" d="M33.4302 30.8815C34.2028 30.7103 35.0391 30.8111 35.73 31.2031C36.6882 31.7235 37.3348 32.7464 37.4248 33.8258C37.5134 34.926 37.0011 36.051 36.1149 36.7108C35.1568 37.4493 33.7708 37.5611 32.6977 37.0062C31.536 36.4278 30.7966 35.1192 30.924 33.8272C30.9932 32.4344 32.0774 31.1948 33.4302 30.8815ZM33.4246 32.2384C32.6506 32.5572 32.1411 33.3924 32.2048 34.2234C32.2643 35.231 33.1809 36.1048 34.2 36.0758C35.2883 36.073 36.2409 35.035 36.1149 33.9487C36.1066 32.6511 34.6126 31.7166 33.4246 32.2384Z" fill="white"/>
<path id="Vector_9" d="M38.4743 34.3601C38.2611 33.1924 39.2816 32.0508 40.464 32.0812C41.2713 32.1212 42.0356 32.6485 42.2876 33.4256C42.4509 34.033 42.4025 34.7384 42.0009 35.2463C41.6562 35.7488 41.0566 36 40.4696 36.0773C39.5073 36.0525 38.5934 35.3347 38.4743 34.3601ZM40.1788 33.4243C39.7717 33.583 39.6153 34.1407 39.8866 34.4802C40.1428 34.875 40.8365 34.8267 41.0137 34.3809C41.3585 33.8936 40.7091 33.1606 40.1788 33.4243Z" fill="white"/>
<path id="Vector_10" d="M27.2008 32.2467C28.0509 31.9416 29.1074 32.2301 29.5713 33.0321C30.2345 34.0011 29.7845 35.485 28.6865 35.9129C27.6896 36.4016 26.3908 35.7859 26.0571 34.752C25.668 33.7872 26.2399 32.6097 27.2008 32.2467ZM27.7186 33.4338C27.3296 33.5539 27.1606 34.0053 27.3074 34.3711C27.4722 34.9025 28.3736 34.9039 28.5203 34.3573C28.7751 33.8796 28.2309 33.2323 27.7186 33.4338Z" fill="white"/>
<path id="Vector_11" d="M37.9052 36.6901C38.6474 36.3658 39.5294 36.646 40.0791 37.2036C40.7465 37.9822 40.7312 39.2645 39.9559 39.9658C39.4948 40.4392 38.8094 40.5593 38.1752 40.4848C37.4455 40.2819 36.7962 39.6952 36.6799 38.9263C36.4666 38.0125 37.0122 36.9993 37.9052 36.6901ZM38.2902 37.9297C37.8872 38.1244 37.7765 38.711 38.124 39.0119C38.4605 39.3874 39.1209 39.1997 39.2511 38.7276C39.4394 38.192 38.79 37.6385 38.2902 37.9297Z" fill="white"/>
<path id="Vector_12" d="M29.3732 36.6018C30.5128 36.3354 31.7631 37.3347 31.6994 38.5122C31.8018 39.6206 30.744 40.6352 29.6405 40.5206C28.4123 40.511 27.4777 39.1472 27.8585 37.9973C28.062 37.3002 28.6671 36.7591 29.3732 36.6018ZM29.3871 37.989C29.0562 38.1768 29.0202 38.6433 29.1988 38.947C29.4923 39.3846 30.294 39.2742 30.3992 38.7344C30.5945 38.1809 29.8689 37.6177 29.3871 37.989Z" fill="white"/>
<path id="Vector_13" d="M33.7071 38.4682C34.8563 38.1355 36.1551 39.1073 36.1315 40.3054C36.2381 41.3738 35.2772 42.405 34.1986 42.358C33.3041 42.4091 32.4609 41.7217 32.2698 40.8617C31.9846 39.8485 32.6838 38.7056 33.7071 38.4682ZM33.8192 39.8113C33.3761 40.0763 33.4246 40.8576 33.9341 41.0205C34.4381 41.2938 35.0737 40.6257 34.7981 40.1356C34.6735 39.734 34.1598 39.6249 33.8192 39.8113Z" fill="white"/>
</g>
<g id="#ff5492ff">
<path id="Vector_14" d="M37.782 12.1486C37.5217 11.4266 37.8305 10.4369 38.628 10.2202C39.1957 10.0545 39.7329 10.4687 39.9517 10.9684C40.1054 11.388 40.6786 11.5177 41.0082 11.2168C41.2574 10.8745 41.4166 10.4107 41.8583 10.2644C42.4163 10.0145 43.0726 10.3831 43.2831 10.9242C43.5905 11.5371 43.3634 12.259 43.0311 12.8111C42.4468 13.7263 41.5094 14.3447 40.5609 14.8361C39.4145 14.2384 38.1974 13.4392 37.782 12.1486Z" fill="#EA9610"/>
<path id="Vector_15" d="M3.77307 13.5716C5.53292 13.5675 7.29276 13.5688 9.05261 13.5702C9.23538 15.6325 9.4583 17.692 9.62722 19.757C9.51922 20.0497 9.27138 20.2733 9.12184 20.5466C8.45446 21.6606 8.2523 23.0409 8.55415 24.3012C8.80476 25.6415 9.53999 26.8369 10.4289 27.8529C10.728 31.279 11.0866 34.6995 11.3981 38.1242C10.2725 38.1215 9.14815 38.1325 8.02384 38.1228C7.44784 38.1325 6.89953 37.6949 6.79569 37.1276C5.78492 29.2761 4.80323 21.4204 3.77307 13.5716Z" fill="#EA9610"/>
<path id="Vector_16" d="M22.9583 13.5884C23.778 13.6505 24.6018 13.5939 25.4215 13.6643C24.5257 20.7042 23.6243 27.7441 22.7229 34.7839C22.6606 35.3375 22.5775 35.8882 22.4737 36.4362C21.9157 36.4348 21.3591 36.4335 20.8011 36.439C21.0323 33.6258 21.3466 30.8195 21.5834 28.0077C21.6041 27.6875 21.888 27.4804 22.0527 27.2306C23.2878 25.6583 23.9981 23.5008 23.364 21.5421C23.1964 20.8795 22.7589 20.3467 22.4155 19.7766C22.5221 17.7088 22.8295 15.6548 22.9583 13.5884Z" fill="#EA9610"/>
</g>
<g id="#fa3e82ff">
<path id="Vector_17" d="M22.9583 13.5884C24.7168 13.536 26.4766 13.5829 28.2351 13.5705C27.8363 16.8723 27.3822 20.1673 26.982 23.4691C26.7951 24.5458 26.748 25.657 26.532 26.7199C24.1283 29.2722 23.0663 33.013 23.8722 36.4322C23.4055 36.4349 22.9389 36.4349 22.4737 36.4363C22.5775 35.8883 22.6606 35.3375 22.7229 34.784C23.6243 27.7441 24.5257 20.7042 25.4215 13.6644C24.6018 13.594 23.778 13.6506 22.9583 13.5884Z" fill="#EA9610"/>
</g>
</g>
<defs>
<clipPath id="clip0_1_52">
<rect width="45" height="45" fill="white"/>
</clipPath>
</defs>
</svg>
