<svg width="147" height="147" viewBox="0 0 147 147" fill="none" xmlns="http://www.w3.org/2000/svg">
<g id="QR">
<path id="Vector" d="M0.00423272 1.1004C-0.00413957 0.732015 0.064931 0.369914 0.127723 0.0078125C1.42543 0.0643254 2.72313 0.0182768 4.01874 0.0329283C5.83343 0.024556 7.64603 0.0308364 9.46073 0.0308364C15.0429 0.0140918 20.6252 0.047581 26.2074 0.0308364C32.765 0.0287433 39.3226 0.026648 45.8802 0.0350203C46.889 0.0119965 47.9 0.0161849 48.9047 0.13549C48.89 16.3966 48.8963 32.6576 48.9005 48.9187C32.6038 48.9061 16.3051 48.9313 0.00841656 48.9061C0.00841656 47.8345 0.00841861 46.7607 0.0105117 45.6891C0.00841861 44.9209 0.00841861 44.1549 0.0105117 43.3888C0.00632553 36.1321 0.0126047 28.8775 0.0105117 21.6209C0.00841861 19.9464 0.00632439 18.2719 0.0126036 16.5975C0.00632439 15.551 0.00841861 14.5023 0.0105117 13.4558C0.00423246 9.33872 0.0167911 5.21956 0.00423272 1.1004ZM7.02021 7.05518C7.02648 18.6654 7.03067 30.2778 7.02021 41.8881C8.52722 41.9655 10.0405 41.9488 11.5517 41.9467C16.0141 41.9006 20.4807 41.9885 24.9495 41.9509C28.9975 41.9655 33.0434 41.9404 37.0893 41.9446C37.577 41.953 38.0667 41.9655 38.5565 41.9446C39.6889 41.8337 40.8317 42.0974 41.9557 41.8462C41.8929 39.8452 41.9766 37.8401 41.8866 35.8391C42.0415 33.7565 41.7798 31.6718 41.9138 29.5892C41.8615 27.3475 41.9619 25.1079 41.9159 22.8662C41.7924 21.6125 41.9996 20.3566 41.9096 19.1008C41.851 18.4059 41.8866 17.7068 41.9389 17.0119C41.8698 13.6902 42.0038 10.3643 41.8845 7.04472C30.2638 7.05727 18.643 7.03844 7.02021 7.05518Z" fill="white"/>
<path id="Vector_2" d="M62.8131 0.223427C62.8633 0.179472 62.9596 0.0873749 63.0099 0.0413273C65.2829 0.0727234 67.5728 -0.094722 69.8354 0.139702C69.8061 2.43999 69.8144 4.74237 69.8312 7.04474C72.1419 7.04474 74.4527 7.028 76.7634 7.05521C76.8053 4.76748 76.7613 2.47766 76.7844 0.189937C76.8388 0.150168 76.9497 0.0685378 77.0041 0.0287694C78.4191 0.0538863 79.8361 0.0120257 81.2531 0.0329564C82.2284 0.0245842 83.2059 0.0266772 84.1834 0.0329564C84.5999 0.0308634 85.0185 0.0308645 85.4392 0.0308645C86.8332 0.0266784 88.2272 0.0245842 89.6233 0.0329564C89.9937 0.079004 90.4584 -0.117744 90.7514 0.194124C90.7577 2.47976 90.741 4.76539 90.7577 7.05102C88.4365 7.04684 86.1174 7.05312 83.7982 7.04684C83.8045 9.36805 83.7857 11.6893 83.8108 14.0105C86.1257 14.0042 88.4428 14.0105 90.7577 14.0063C90.7535 16.317 90.7347 18.6299 90.7724 20.9406C89.7719 21.0976 88.7588 21.0055 87.7521 21.0265C86.4397 21.0055 85.1232 21.0851 83.815 20.9637C83.7794 23.3058 83.8045 25.648 83.8045 27.988C86.1216 27.9545 88.4407 27.9713 90.7598 27.9817C90.743 36.6743 90.7535 45.3647 90.7535 54.0572C90.7242 54.6056 90.8435 55.1812 90.6572 55.7128C90.5903 55.7505 90.4605 55.8259 90.3935 55.8635C88.1979 55.8887 86.0002 55.8782 83.8024 55.8656C83.8024 58.168 83.7836 60.4725 83.8171 62.7749C83.1117 62.9632 82.3854 62.8397 81.6696 62.8397C80.9035 62.89 80.1354 62.89 79.3693 62.8837C78.507 62.9214 77.6446 62.7665 76.7865 62.8858C76.7697 69.8662 76.8283 76.8487 76.7551 83.827C74.4401 83.7725 72.121 83.9044 69.8082 83.7558C69.8123 81.4367 69.8061 79.1197 69.8082 76.8026C65.1553 76.8173 60.5024 76.8152 55.8516 76.8047C55.8432 79.1427 55.8976 81.4848 55.8244 83.8228C53.5157 83.8249 51.2091 83.8039 48.9026 83.8353C48.8942 86.1482 48.8921 88.461 48.9005 90.7739C44.2371 90.7781 39.5737 90.7718 34.9083 90.776C34.9083 88.4694 34.9209 86.1628 34.8999 83.8563C36.1767 83.6512 37.4765 83.7893 38.7637 83.7537C42.1419 83.7935 45.5285 83.6595 48.9026 83.827C48.867 81.4848 48.9026 79.1427 48.8837 76.8005C44.2225 76.8194 39.5633 76.8152 34.9041 76.8026C34.9188 74.4835 34.9041 72.1644 34.9146 69.8452C39.5758 69.818 44.2392 69.8264 48.9026 69.8411C48.89 72.1581 48.8984 74.4772 48.8963 76.7943C51.2133 76.7901 53.5324 76.811 55.8495 76.788C55.8432 72.1539 55.8411 67.5198 55.8495 62.8858C52.8061 62.8732 49.7628 62.8816 46.7174 62.8837C43.649 62.8858 40.5784 62.8858 37.51 62.8837C36.6455 62.8816 35.7832 62.89 34.9188 62.8858C34.9146 65.2049 34.9209 67.5261 34.9188 69.8452C32.5996 69.8348 30.2805 69.8432 27.9614 69.8411C27.9593 72.1581 27.9509 74.4751 27.9656 76.7922C25.6276 76.8298 23.2897 76.811 20.9517 76.8026C20.9412 74.4793 20.9517 72.1581 20.9622 69.8369C23.2938 69.8243 25.6234 69.8306 27.953 69.8327C27.953 65.1735 27.9426 60.5164 27.9593 55.8573C37.2546 55.8782 46.5479 55.8573 55.8432 55.8677C55.839 51.242 55.8641 46.6163 55.8285 41.9907C58.1204 41.8127 60.4417 42.1142 62.7378 41.8609C63.0287 42.8384 62.7545 43.8577 62.8131 44.854C62.9052 46.204 62.8487 47.5582 62.8675 48.9104C65.1846 48.9166 67.5037 48.9041 69.8207 48.9166C69.8165 51.2316 69.8228 53.5486 69.8165 55.8656C72.1377 55.8656 74.459 55.8677 76.7802 55.8614C76.7697 53.5444 76.7948 51.2274 76.7697 48.9104C74.4527 48.925 72.1377 48.9083 69.8207 48.9187C69.7977 46.5996 69.8144 44.2784 69.8102 41.9572C72.1294 41.9027 74.459 42.0011 76.7844 41.9425C76.7948 44.2679 76.7802 46.5912 76.7906 48.9145C79.0951 48.9145 81.3996 48.8978 83.7061 48.925C83.8296 48.2657 83.7355 47.6001 83.7334 46.9387C83.7396 40.6155 83.7313 34.2944 83.7375 27.9713C81.4205 27.9922 79.1014 27.9713 76.7844 27.9817C76.7906 30.2988 76.7865 32.6158 76.7865 34.9328C74.4632 34.9412 72.1398 34.9286 69.8165 34.9391C69.8019 32.62 69.8102 30.3029 69.8123 27.9838C67.4765 27.9671 65.1385 27.9922 62.8027 27.9713C62.7922 25.6563 62.8047 23.3414 62.7964 21.0265C60.4814 21.0223 58.1665 21.0348 55.8516 21.0223C55.839 18.6843 55.8453 16.3443 55.8495 14.0042C58.1665 14.0126 60.4856 14.0042 62.8027 14.0084C62.8027 9.4141 62.7817 4.81772 62.8131 0.223427ZM69.8249 27.9755C72.1398 27.9734 74.4569 27.9629 76.7739 27.9796C76.7802 23.3226 76.7906 18.6634 76.7676 14.0063C74.4548 14.023 72.1419 14.0168 69.8312 14.0084C69.8082 18.6634 69.8207 23.3184 69.8249 27.9755ZM62.8654 62.8879C62.8633 65.2007 62.8654 67.5136 62.8675 69.8285C65.1825 69.8369 67.4953 69.8243 69.8102 69.8327C69.8082 67.5157 69.8082 65.1986 69.8123 62.8816C68.9542 62.7686 68.0918 62.913 67.2316 62.8858C65.7769 62.8837 64.3201 62.8816 62.8654 62.8879Z" fill="white"/>
<path id="Vector_3" d="M97.6879 0.133258C99.243 -0.0886075 100.825 0.0746518 102.393 0.0348834C103.58 0.00976658 104.767 0.0620957 105.953 0.0306996C106.37 0.0286065 106.789 0.0327927 107.207 0.0306996C107.624 0.0306996 108.044 0.0306996 108.465 0.0306996C110.696 0.0265135 112.928 0.0265135 115.161 0.0306996C117.742 0.0286065 120.322 0.0265135 122.905 0.0306996C127.579 0.0286065 132.253 0.0265135 136.927 0.0306996C137.555 0.0286065 138.185 0.0286065 138.815 0.0306996C141.374 0.0286065 143.936 0.0306984 146.498 0.0327915C146.59 0.807228 146.603 1.58585 146.588 2.36447C146.59 4.17707 146.592 5.99177 146.588 7.80437C146.592 18.41 146.592 29.0155 146.586 39.6211C146.588 42.4091 146.601 45.1992 146.582 47.9892C146.582 48.2948 146.588 48.6025 146.597 48.9102C130.298 48.9248 113.999 48.9081 97.7004 48.9186C97.6983 32.6575 97.7255 16.3943 97.6879 0.133258ZM104.656 7.05923C104.754 8.13925 104.748 9.22765 104.689 10.3098C104.737 14.6361 104.76 18.9709 104.67 23.2973C104.817 24.8943 104.639 26.4934 104.666 28.0925C104.806 31.2384 104.616 34.3822 104.721 37.526C104.534 39.0079 104.846 40.4981 104.658 41.98C105.855 41.7791 107.067 42.0386 108.27 41.89C109.941 41.9633 111.613 41.9193 113.281 41.9424C115.167 42.0282 117.055 41.8482 118.939 41.9465C120.885 41.7896 122.836 42.001 124.785 41.8963C126.388 42.0575 127.993 41.8503 129.601 41.8984C132.921 42.0407 136.244 41.7875 139.558 41.9737C139.589 30.33 139.562 18.6862 139.57 7.04458C127.933 7.06132 116.293 7.03202 104.656 7.05923Z" fill="white"/>
<path id="Vector_4" d="M13.9881 14.002C20.9601 14.0083 27.9321 14.0166 34.9062 13.9978C34.9355 20.9761 34.9062 27.9523 34.9209 34.9285C27.9405 34.9369 20.9622 34.9411 13.9818 34.9264C13.9943 27.9523 13.9818 20.9782 13.9881 14.002Z" fill="white"/>
<path id="Vector_5" d="M111.684 34.9389C111.684 27.9606 111.67 20.9803 111.693 14.002C118.667 14.0124 125.641 14.0124 132.617 14.002C132.605 20.9761 132.611 27.9523 132.613 34.9285C125.637 34.9452 118.66 34.9243 111.684 34.9389Z" fill="white"/>
<path id="Vector_6" d="M0.00842943 55.8699C7.00557 55.8657 14.0048 55.8552 21.0019 55.8761C21.0124 57.4334 21.004 58.9927 21.004 60.55C20.9957 61.3349 21.0689 62.1281 20.891 62.9005C17.36 62.8607 13.8269 62.8921 10.2938 62.8838C9.66795 62.8838 9.04212 62.8838 8.4163 62.8838C7.95163 62.8817 7.48697 62.8817 7.02231 62.8838C7.03487 65.2029 7.01185 67.5241 7.03487 69.8432C4.72412 69.8474 2.41128 69.8223 0.100525 69.8558C0.0523844 69.5439 -0.00203452 69.2299 5.85468e-05 68.916C0.0168031 64.5666 0.00633635 60.2193 0.00842943 55.8699Z" fill="white"/>
<path id="Vector_7" d="M90.72 56.0937C90.7514 56.0434 90.81 55.943 90.8393 55.8948C95.4462 55.8237 100.059 55.8885 104.668 55.8613C104.71 60.3552 104.605 64.8574 104.727 69.3533C104.706 69.4684 104.668 69.7007 104.649 69.8179C102.332 69.8744 100.013 69.8221 97.6941 69.8431C97.7193 67.5239 97.6941 65.2048 97.7088 62.8878C96.3399 62.8794 94.9711 62.8857 93.6022 62.8836C92.6561 62.8815 91.7101 62.8815 90.7661 62.892C90.7012 60.6252 90.7786 58.3584 90.72 56.0937Z" fill="white"/>
<path id="Vector_8" d="M125.593 57.8227C125.582 57.1634 125.572 56.5041 125.679 55.8511C127.991 55.8783 130.304 55.8657 132.617 55.8574C132.607 60.5186 132.604 65.1799 132.619 69.8391C137.272 69.8244 141.925 69.8265 146.578 69.837C146.592 70.58 146.59 71.321 146.588 72.064C146.592 73.8075 146.592 75.5532 146.588 77.2967C146.595 79.1051 146.584 80.9135 146.597 82.7219C146.607 83.0966 146.553 83.4691 146.475 83.8375C144.169 83.8019 141.862 83.825 139.556 83.825C139.606 86.1399 139.583 88.4548 139.566 90.7719C141.904 90.753 144.242 90.7593 146.58 90.7677C146.603 95.5566 146.588 100.346 146.586 105.135C146.586 109.643 146.605 114.149 146.578 118.658C144.242 118.668 141.906 118.685 139.572 118.656C139.566 114.001 139.579 109.348 139.566 104.695C134.934 104.689 130.31 104.695 125.679 104.691C125.609 106.095 125.614 107.5 125.655 108.904C125.563 109.842 125.622 110.782 125.676 111.721C127.989 111.684 130.304 111.705 132.617 111.711C132.604 114.026 132.613 116.341 132.611 118.656C134.93 118.66 137.249 118.66 139.568 118.654C139.581 121.004 139.606 123.353 139.556 125.701C136.025 125.63 132.5 125.647 128.967 125.68C127.866 125.682 126.763 125.701 125.664 125.607C125.507 123.323 125.632 121.027 125.595 118.739C125.609 116.646 125.547 114.551 125.647 112.462C125.626 112.205 125.603 111.947 125.576 111.694C120.946 111.719 116.316 111.698 111.686 111.705C111.691 114.022 111.678 116.339 111.691 118.656C109.367 118.681 107.044 118.666 104.723 118.664C104.689 119.035 104.666 119.411 104.658 119.788C104.61 121.754 104.76 123.729 104.641 125.688C104.237 125.68 103.835 125.674 103.435 125.676C101.52 125.565 99.5926 125.814 97.6858 125.582C97.7214 123.275 97.7067 120.971 97.6962 118.664C95.3771 118.662 93.0601 118.687 90.7431 118.656C90.741 116.341 90.741 114.028 90.7431 111.715C88.4302 111.692 86.1174 111.711 83.8066 111.705C83.7564 114.024 83.8736 116.349 83.7417 118.666C81.4205 118.668 79.0972 118.681 76.776 118.656C76.7844 116.339 76.7781 114.024 76.7781 111.707C74.459 111.703 72.1398 111.703 69.8228 111.709C69.8144 116.343 69.8291 120.979 69.8144 125.613C72.1336 125.636 74.4548 125.586 76.776 125.628C76.7948 127.968 76.7969 130.308 76.7781 132.646C74.4569 132.623 72.1378 132.637 69.8186 132.637C69.8144 130.318 69.7872 127.999 69.8312 125.682C67.9872 125.676 66.1432 125.686 64.2992 125.676C63.799 125.676 63.2987 125.682 62.8006 125.693C62.9429 127.997 62.8299 130.312 62.8634 132.623C65.1825 132.633 67.5016 132.6 69.8207 132.64C69.827 134.957 69.8061 137.276 69.8291 139.593C67.5079 139.609 65.1867 139.597 62.8654 139.599C62.8466 141.903 62.8989 144.208 62.8424 146.51C60.5107 146.64 58.1602 146.684 55.8327 146.523C55.8495 139.586 55.862 132.65 55.8264 125.714C58.1393 125.492 60.4793 125.67 62.8047 125.615C62.7901 123.298 62.8027 120.983 62.8006 118.668C60.4793 118.656 58.1602 118.689 55.839 118.656C55.8537 107.022 55.8411 95.3871 55.8474 83.7538C57.7563 83.7517 59.6672 83.7475 61.5782 83.7559C62.765 83.7496 63.9497 83.7475 65.1364 83.7559C66.702 83.7726 68.2719 83.6952 69.8354 83.8082C69.8082 86.1273 69.8124 88.4486 69.8333 90.7677C74.4632 90.7719 79.0951 90.7321 83.725 90.7865C83.8108 88.4402 83.5931 86.075 83.8443 83.7412C86.1488 83.804 88.4595 83.6596 90.7598 83.8292C90.7389 86.1378 90.7598 88.4486 90.7514 90.7593C93.0664 90.774 95.3834 90.7468 97.7004 90.774C97.7088 86.1127 97.7067 81.4535 97.7004 76.7943C100.022 76.8027 102.341 76.7902 104.662 76.7985C104.7 81.4556 104.691 86.1043 104.685 90.7593C107.019 90.7761 109.353 90.7405 111.684 90.7781C111.699 95.4373 111.659 100.097 111.705 104.756C113.625 104.737 115.544 104.754 117.463 104.751C117.853 104.743 118.246 104.739 118.64 104.722C118.642 102.388 118.646 100.057 118.637 97.723C120.952 97.7292 123.269 97.7167 125.586 97.7292C125.599 96.779 125.591 95.8287 125.595 94.8785C125.62 93.5054 125.519 92.1261 125.672 90.7572C127.987 90.7698 130.302 90.7551 132.619 90.7677C132.592 88.4318 132.6 86.096 132.613 83.7622C133.492 83.7433 134.371 83.7517 135.252 83.7538C135.74 83.7538 136.228 83.7538 136.719 83.7559C137.672 83.7433 138.624 83.7664 139.577 83.7496C139.558 81.4347 139.587 79.1177 139.562 76.8006C137.243 76.8132 134.924 76.8216 132.604 76.8006C132.604 74.4836 132.604 72.1666 132.604 69.8495C130.29 69.8244 127.973 69.86 125.66 69.8307C125.672 70.9254 125.582 72.018 125.647 73.1126C125.501 74.3454 125.769 75.5845 125.58 76.8153C120.948 76.8069 116.314 76.8132 111.682 76.8111C111.68 74.4836 111.682 72.1582 111.68 69.8307C116.316 69.8412 120.952 69.8098 125.586 69.8474C125.586 69.4686 125.591 69.0918 125.595 68.7151C125.589 65.0836 125.597 61.4542 125.593 57.8227ZM83.8003 90.7698C83.8045 95.4248 83.7815 100.082 83.815 104.737C86.1216 104.762 88.4281 104.743 90.7347 104.749C90.7556 100.094 90.7263 95.4373 90.7514 90.7823C88.4344 90.7614 86.1174 90.7865 83.8003 90.7698ZM97.7067 90.7802C97.7067 93.0931 97.7193 95.4059 97.7025 97.7188C100.032 97.7334 102.362 97.7188 104.691 97.725C104.775 95.4143 104.708 93.1015 104.727 90.7907C102.387 90.7593 100.047 90.7761 97.7067 90.7802ZM62.8675 97.7271C62.8424 102.386 62.8529 107.041 62.8654 111.7C65.1825 111.709 67.4974 111.698 69.8144 111.705C69.804 107.046 69.8082 102.386 69.8144 97.7271C67.4974 97.7313 65.1825 97.7292 62.8675 97.7271ZM97.7172 104.687C97.6983 107.025 97.7172 109.363 97.7067 111.703C100.049 111.703 102.391 111.709 104.733 111.696C104.729 111.322 104.727 110.949 104.727 110.579C104.683 108.607 104.832 106.627 104.637 104.664C104.235 104.695 103.835 104.745 103.435 104.741C101.531 104.632 99.6219 104.701 97.7172 104.687Z" fill="white"/>
<path id="Vector_9" d="M83.838 69.8619C86.1425 69.7928 88.4532 69.8388 90.7598 69.8409C90.7472 72.1601 90.7493 74.4792 90.7556 76.8004C88.4365 76.8276 86.1174 76.8004 83.8003 76.813C83.6643 74.5273 83.7585 72.2312 83.7417 69.9414L83.838 69.8619Z" fill="white"/>
<path id="Vector_10" d="M0.0105138 79.1761C0.016793 78.3786 -0.0418157 77.5728 0.102606 76.7837C2.41336 76.8151 4.72411 76.7858 7.03486 76.8004C7.01812 81.4575 7.02021 86.1167 7.03486 90.7738C4.72411 90.7822 2.41126 90.7591 0.100514 90.7863C-0.0376284 89.9198 0.0146979 89.0407 0.00841866 88.1679C0.0126048 85.1706 0.00632763 82.1733 0.0105138 79.1761Z" fill="white"/>
<path id="Vector_11" d="M13.9692 83.85C14.9655 83.6637 15.9848 83.7809 16.9916 83.7516C18.3312 83.783 19.677 83.6741 21.0124 83.8311C20.9559 86.146 21.0773 88.461 20.935 90.7738C18.6179 90.778 16.3009 90.7738 13.9818 90.7759C13.9818 88.4673 14.0069 86.1586 13.9692 83.85Z" fill="white"/>
<path id="Vector_12" d="M111.684 83.7954C112.421 83.7284 113.164 83.7514 113.905 83.7535C115.483 83.7556 117.061 83.7347 118.64 83.7703C118.646 86.1103 118.663 88.4483 118.631 90.7884C116.312 90.757 113.995 90.7884 111.678 90.7695C111.686 88.4462 111.676 86.1208 111.684 83.7954Z" fill="white"/>
<path id="Vector_13" d="M0.0272566 100.509C0.148655 99.5753 -0.0962319 98.6355 0.0921445 97.7083C16.3595 97.7438 32.6289 97.7208 48.8984 97.7187C48.8879 114.015 48.9109 130.312 48.8879 146.609C47.2511 146.6 45.6143 146.632 43.9797 146.592C41.964 146.45 39.9505 146.642 37.937 146.609C36.5367 146.607 35.1385 146.613 33.7404 146.607C32.8341 146.609 31.9278 146.611 31.0215 146.607C29.4161 146.611 27.8107 146.611 26.2053 146.607C25.0876 146.609 23.972 146.609 22.8543 146.607C15.2669 146.613 7.68162 146.607 0.0942364 146.611C-0.0334409 145.836 0.00632666 145.051 0.00841973 144.273C0.0105128 137.437 0.0063287 130.599 0.0105148 123.763C0.00842177 120.345 0.00842177 116.925 0.0105148 113.507C0.00842177 111.483 0.00842177 109.461 0.0105148 107.437C0.0188871 105.128 -0.0146048 102.817 0.0272566 100.509ZM7.03067 104.701C7.01812 116.332 7.02858 127.961 7.02649 139.591C18.6368 139.603 30.2491 139.574 41.8594 139.605C42.0205 136.348 41.8364 133.09 41.9326 129.833C41.8112 128.227 42.0017 126.62 41.8845 125.014C42.0268 122.919 41.8175 120.824 41.9222 118.733C41.9766 117.128 41.8217 115.524 41.9347 113.923C41.8196 110.874 42.0247 107.822 41.8887 104.777C41.2796 104.617 40.6433 104.697 40.0217 104.682C32.068 104.695 24.1122 104.674 16.1586 104.689C15.5997 104.684 15.0429 104.684 14.4862 104.682C12.0017 104.754 9.51724 104.655 7.03067 104.701Z" fill="white"/>
<path id="Vector_14" d="M13.9839 111.709C20.9622 111.696 27.9384 111.705 34.9167 111.705C34.9083 118.685 34.9397 125.665 34.902 132.646C27.9279 132.621 20.9559 132.637 13.9818 132.637C13.9902 125.661 13.986 118.685 13.9839 111.709Z" fill="white"/>
<path id="Vector_15" d="M83.7124 125.732C84.558 125.538 85.4267 125.628 86.2848 125.613C87.6934 125.624 89.1021 125.592 90.5107 125.626C90.5714 125.661 90.6907 125.734 90.7493 125.77C90.7619 128.058 90.7368 130.345 90.7598 132.633C88.447 132.644 86.132 132.619 83.8192 132.648C83.6141 130.352 83.815 128.035 83.7124 125.732Z" fill="white"/>
<path id="Vector_16" d="M111.688 125.628C112.844 125.596 114.003 125.615 115.161 125.617C116.318 125.611 117.478 125.605 118.637 125.623C118.65 127.963 118.658 130.306 118.633 132.646C116.318 132.623 114.005 132.639 111.693 132.635C111.67 130.299 111.68 127.963 111.688 125.628Z" fill="white"/>
<path id="Vector_17" d="M139.568 125.676C140.29 125.59 141.017 125.609 141.745 125.617C143.294 125.619 144.843 125.592 146.394 125.623C146.438 125.674 146.53 125.774 146.574 125.824C146.574 128.093 146.659 130.37 146.523 132.635C144.206 132.637 141.889 132.625 139.574 132.641C139.583 134.956 139.593 137.271 139.57 139.584C141.908 139.605 144.248 139.58 146.586 139.599C146.595 141.162 146.588 142.726 146.59 144.291C146.58 145.068 146.653 145.857 146.471 146.625C144.127 146.585 141.785 146.625 139.44 146.602C137.628 146.617 135.815 146.604 134.003 146.611C131.2 146.519 128.387 146.74 125.589 146.519C125.597 142.837 125.593 139.157 125.593 135.475C125.599 134.521 125.551 133.564 125.67 132.618C130.302 132.637 134.934 132.602 139.564 132.635C139.576 130.316 139.57 127.997 139.568 125.676Z" fill="white"/>
<path id="Vector_18" d="M97.7004 132.639C100.02 132.597 102.343 132.637 104.664 132.618C104.675 136.369 104.693 140.12 104.666 143.869C104.739 144.785 104.7 145.704 104.622 146.621C103.251 146.594 101.88 146.617 100.509 146.606C99.5758 146.6 98.6402 146.644 97.7088 146.56C97.6942 141.92 97.7151 137.28 97.7004 132.639Z" fill="white"/>
<path id="Vector_19" d="M83.8024 139.586C86.1195 139.597 88.4365 139.593 90.7556 139.589C90.741 141.926 90.7619 144.267 90.7493 146.607C89.0477 146.615 87.346 146.605 85.6464 146.609C85.0018 146.602 84.3445 146.669 83.7166 146.491C83.7962 144.189 83.6434 141.883 83.8024 139.586Z" fill="white"/>
<path id="Vector_20" d="M111.68 146.556C111.688 144.231 111.674 141.908 111.686 139.584C114.001 139.595 116.316 139.601 118.631 139.582C118.665 141.92 118.642 144.26 118.644 146.6C116.322 146.596 113.997 146.657 111.68 146.556Z" fill="white"/>
</g>
</svg>
