<svg width="49" height="44" viewBox="0 0 49 44" fill="none" xmlns="http://www.w3.org/2000/svg">
<g id="Subscription 2" clip-path="url(#clip0_1_32)">
<g id="#000000ff">
<path id="Vector" d="M13.1188 0.667587C14.1484 0.643477 15.181 0.647998 16.2121 0.663066C16.6059 0.676628 16.8704 1.00813 16.9095 1.38183C16.8268 1.66964 16.6886 2.0117 16.3489 2.05389C15.3103 2.12019 14.2671 2.04485 13.2285 2.08101C12.6724 2.06896 12.1854 2.53457 12.0862 3.0695C12.0125 3.54567 12.0561 4.03087 12.0471 4.51005C12.0501 16.7231 12.0471 28.9361 12.0486 41.1491C11.993 41.8799 12.6092 42.6122 13.3698 42.5279C20.8896 42.5248 28.4095 42.5279 35.9278 42.5264C36.6899 42.6092 37.3076 41.8754 37.2475 41.1431C37.2475 28.5805 37.2475 16.0164 37.2475 3.45375C37.2941 2.78622 36.7846 2.07649 36.0811 2.08252C30.5664 2.06594 25.0486 2.08403 19.5324 2.07348C19.0799 2.1217 18.7523 1.70129 18.7433 1.27786C18.8395 0.919231 19.1701 0.643477 19.5459 0.657039C25.0035 0.651012 30.4597 0.655532 35.9158 0.655532C36.8778 0.63745 37.8382 1.13772 38.3012 1.99512C38.7641 2.73649 38.5883 3.64964 38.6228 4.4754C41.1284 4.48142 43.6356 4.46485 46.1412 4.48293C47.5195 4.45279 48.7325 5.71101 48.6964 7.08375C48.7039 14.5653 48.6964 22.0453 48.6994 29.5268C48.767 29.9668 48.4634 30.3751 48.035 30.4625C47.754 30.3962 47.4594 30.2696 47.3316 29.9924C47.267 29.4936 47.3061 28.9873 47.2985 28.4855C47.2985 21.3973 47.3 14.3091 47.2985 7.22087C47.3632 6.49457 46.7289 5.83156 46.0029 5.86772C44.2653 5.85266 42.5278 5.8632 40.7918 5.86772C40.0733 5.8632 39.3533 5.85868 38.6349 5.8617C38.6078 8.568 38.6303 11.2728 38.6228 13.9776C39.3443 13.9776 40.0643 13.9791 40.7857 13.9776C41.6726 13.9851 42.5594 13.958 43.4447 13.9836C44.1526 13.9746 44.823 14.5517 44.8801 15.2644C44.9192 15.7964 44.9117 16.3328 44.8906 16.8662C44.8771 17.5473 44.2984 18.1983 43.607 18.2194C42.6676 18.2631 41.7267 18.2239 40.7888 18.2344C40.0658 18.2314 39.3443 18.2329 38.6228 18.2329C38.6213 18.7181 38.6213 19.2033 38.6334 19.687C39.3503 19.6825 40.0688 19.6855 40.7888 19.684C42.2723 19.6946 43.7573 19.6569 45.2408 19.6991C45.8541 19.7232 46.0585 20.6454 45.5625 20.9664C45.3476 21.1442 45.0545 21.1125 44.7959 21.1231C43.4567 21.1155 42.119 21.1216 40.7812 21.117C40.0628 21.1155 39.3428 21.1155 38.6228 21.117C38.6228 21.9066 38.6228 22.6962 38.6228 23.4858C39.3428 23.4858 40.0628 23.4873 40.7827 23.4858C42.2708 23.4964 43.7588 23.4557 45.2453 23.5024C45.8421 23.5491 46.0525 24.4155 45.5865 24.7591C45.3746 24.9595 45.062 24.9053 44.7989 24.9248C43.4612 24.9173 42.1235 24.9218 40.7857 24.9203C40.0643 24.9173 39.3443 24.9188 38.6243 24.9188C38.6213 25.7099 38.6228 26.501 38.6243 27.2921C39.3458 27.2921 40.0673 27.2921 40.7888 27.2921C42.2287 27.2996 43.6686 27.2785 45.1086 27.2981C45.4949 27.2921 45.8947 27.6101 45.8315 28.0275C45.8721 28.4298 45.4768 28.7522 45.095 28.7131C43.6596 28.7266 42.2242 28.7131 40.7888 28.7161C40.0673 28.7146 39.3458 28.7161 38.6228 28.7161C38.6228 29.5147 38.6228 30.3133 38.6228 31.1135C39.3428 31.1135 40.0643 31.1135 40.7842 31.112C41.5433 31.127 42.3038 31.0758 43.0614 31.1346C43.7543 31.1933 44.345 31.8443 44.318 32.545C44.327 33.0513 44.333 33.5591 44.3104 34.0669C44.2834 34.754 43.6581 35.3176 42.9892 35.3688C42.2557 35.4125 41.5207 35.3718 40.7872 35.3839C40.0658 35.3839 39.3443 35.3839 38.6228 35.3839C38.6273 36.5035 38.6108 37.6216 38.6364 38.7412C39.3548 38.7396 40.0733 38.7532 40.7918 38.7231C42.2257 38.708 43.6596 38.7607 45.095 38.7427C45.6301 38.7185 46.2223 38.8346 46.7063 38.5422C47.1076 38.3132 47.3166 37.8416 47.2985 37.3895C47.3106 35.9233 47.2835 34.4572 47.3046 32.9925C47.2429 32.5827 47.6488 32.3868 47.9659 32.2677C48.3266 32.3265 48.6994 32.5766 48.6904 32.982C48.7054 34.5506 48.7099 36.1192 48.6874 37.6879C48.6408 38.9973 47.4564 40.1455 46.1427 40.1199C43.6356 40.138 41.1284 40.1214 38.6228 40.1274C38.6048 40.789 38.6845 41.467 38.5221 42.1165C38.214 43.0236 37.3813 43.8554 36.3788 43.8569C28.9641 43.8494 21.548 43.8539 14.1333 43.8524C13.5577 43.8388 12.97 43.9187 12.4033 43.7891C11.4338 43.4561 10.6733 42.4887 10.6838 41.4444C10.6688 41.0044 10.6793 40.5659 10.6778 40.1274C8.17369 40.1214 5.66958 40.138 3.16547 40.1199C1.78866 40.1485 0.571171 38.8994 0.605742 37.5266C0.59973 30.1883 0.596723 22.8484 0.607245 15.5085C0.574177 15.0821 0.943932 14.7777 1.34225 14.7476C1.60378 14.8229 1.81271 14.9962 2.00359 15.1861C2.00059 22.5847 2.00209 29.9848 2.00209 37.385C1.93746 38.1113 2.57476 38.7728 3.30224 38.7336C5.03678 38.7472 6.77283 38.7472 8.50737 38.7231C9.22583 38.7502 9.9458 38.7412 10.6658 38.7412C10.6898 37.6216 10.6733 36.5035 10.6778 35.3839C9.95633 35.3839 9.23485 35.3839 8.51338 35.3839C7.5424 35.289 6.45418 35.631 5.57488 35.0961C4.77225 34.5672 5.00522 33.5139 4.97817 32.6987C4.88948 31.9453 5.4832 31.1979 6.24074 31.1346C6.99679 31.0758 7.75734 31.127 8.51488 31.112C9.23636 31.1135 9.95633 31.1135 10.6778 31.1135C10.6778 30.3133 10.6778 29.5147 10.6763 28.7161C9.95482 28.7161 9.23485 28.7146 8.51338 28.7161C7.07344 28.7116 5.6335 28.7266 4.19507 28.7131C3.81479 28.7492 3.427 28.4238 3.46909 28.0259C3.40445 27.6025 3.81629 27.2861 4.20559 27.2981C5.64252 27.2801 7.07945 27.2981 8.51488 27.2921C9.23636 27.2921 9.95633 27.2921 10.6778 27.2921C10.6778 26.501 10.6778 25.7099 10.6763 24.9188C9.95783 24.9188 9.23786 24.9173 8.51939 24.9203C7.02985 24.9083 5.53881 24.9474 4.05228 24.9022C3.44203 24.8706 3.24363 23.9499 3.74114 23.6335C3.95307 23.4572 4.24317 23.4903 4.49869 23.4798C5.83942 23.4873 7.18016 23.4813 8.51939 23.4858C9.23936 23.4873 9.95783 23.4858 10.6778 23.4858C10.6778 22.6962 10.6778 21.9066 10.6763 21.117C9.95783 21.1155 9.23786 21.1155 8.51939 21.117C7.02534 21.1035 5.52979 21.1502 4.03725 21.0974C3.45255 21.0342 3.25264 20.1828 3.71258 19.8438C3.92602 19.6388 4.24166 19.6991 4.50921 19.678C5.84393 19.6855 7.17866 19.681 8.51488 19.6825C9.23485 19.6855 9.95632 19.684 10.6763 19.684C10.6778 19.2003 10.6778 18.7166 10.6778 18.2329C9.95482 18.2329 9.23335 18.2314 8.51037 18.2344C7.57096 18.2239 6.63004 18.2631 5.69062 18.2194C4.99771 18.1968 4.42203 17.5443 4.41001 16.8632C4.38896 16.3313 4.38145 15.7964 4.41902 15.2659C4.47614 14.5502 5.15252 13.9746 5.86047 13.9836C6.74427 13.9595 7.63108 13.9836 8.51639 13.9776C9.23636 13.9791 9.95632 13.9776 10.6763 13.9776C10.6703 11.2728 10.6943 8.56649 10.6643 5.8617C9.9458 5.8632 9.22734 5.84964 8.51037 5.87978C6.77133 5.88279 5.03077 5.8406 3.29323 5.86772C2.63037 5.84211 2.00359 6.39964 2.00961 7.07471C1.98105 8.79101 2.02163 10.5073 1.99458 12.2236C2.02614 12.6048 1.6639 12.8444 1.33623 12.9122C0.900343 12.9032 0.545619 12.4948 0.602736 12.0594C0.601233 10.3988 0.596724 8.73677 0.605742 7.07471C0.586202 5.9732 1.35728 4.92896 2.4004 4.59896C2.98961 4.43622 3.60286 4.47841 4.20559 4.4754C6.36249 4.4769 8.51789 4.47389 10.6748 4.4769C10.6943 3.8395 10.6267 3.19457 10.756 2.56622C11.0445 1.51896 12.0306 0.717313 13.1188 0.667587ZM5.79884 15.4272C5.80636 15.9003 5.80936 16.3735 5.81387 16.8466C7.42817 16.8451 9.04396 16.8361 10.6583 16.8511C10.6507 16.3705 10.6507 15.8898 10.6553 15.4091C9.03645 15.4317 7.41764 15.3955 5.79884 15.4272ZM38.6439 15.4091C38.6499 15.8898 38.6499 16.3705 38.6439 16.8511C40.2582 16.8361 41.874 16.8481 43.4883 16.8451C43.4958 16.3659 43.4958 15.8868 43.4838 15.4076C41.871 15.4211 40.2567 15.4196 38.6439 15.4091ZM6.37752 32.5842C6.39255 33.0407 6.39406 33.4973 6.39556 33.9539C7.81295 33.9539 9.22884 33.9479 10.6447 33.9569C10.6432 33.4747 10.6432 32.994 10.6447 32.5118C10.2539 32.5329 9.86314 32.5329 9.47234 32.5435C8.44274 32.6851 7.40261 32.4365 6.37752 32.5842ZM38.6574 32.5164C38.6574 32.997 38.6574 33.4777 38.6559 33.9584C40.0718 33.9464 41.4892 33.9539 42.9051 33.9539C42.9066 33.4928 42.9081 33.0332 42.9171 32.5736C41.4967 32.5525 40.0778 32.5043 38.6574 32.5164Z" fill="white"/>
<path id="Vector_2" d="M24.0401 4.819C24.273 4.42421 24.8923 4.36845 25.1839 4.72407C25.6529 5.33585 26.0797 5.97928 26.5457 6.59407C27.4205 6.21284 28.2922 5.82558 29.1745 5.46393C29.6946 5.24092 30.2237 5.81955 30.0599 6.3364C29.8239 7.92613 29.5488 9.50982 29.2707 11.092C29.6375 11.1086 30.0719 11.3286 30.0719 11.7475C30.1651 12.195 29.7472 12.5898 29.3113 12.5446C26.2015 12.5491 23.0916 12.5506 19.9818 12.5446C19.5474 12.5868 19.1341 12.1905 19.2287 11.7445C19.2287 11.3271 19.6631 11.1086 20.0299 11.092C19.7909 9.81571 19.5985 8.53037 19.3776 7.25106C19.3069 6.84421 19.2167 6.43434 19.2363 6.01845C19.2453 5.60558 19.7548 5.29065 20.1291 5.46544C21.0129 5.82256 21.8817 6.21434 22.758 6.58955C23.1968 6.00791 23.6102 5.40667 24.0401 4.819ZM23.5185 7.9201C23.3111 8.21092 22.8917 8.1627 22.6001 8.04667C21.9989 7.79654 21.4127 7.51024 20.8025 7.2827C21.0279 8.56804 21.2038 9.86243 21.4638 11.1417C23.5876 11.1387 25.713 11.1402 27.8368 11.1417C28.0953 9.86243 28.2727 8.56804 28.4982 7.2827C27.8879 7.52078 27.2957 7.80256 26.69 8.04969C26.3954 8.16571 25.9775 8.20791 25.7746 7.91106C25.3778 7.41229 25.0321 6.87585 24.6503 6.36503C24.267 6.87887 23.9198 7.41982 23.5185 7.9201Z" fill="white"/>
<path id="Vector_3" d="M24.3783 8.7744C24.7961 8.58906 25.3372 8.89194 25.3372 9.36659C25.4033 9.91509 24.727 10.3325 24.2745 10.0055C23.8266 9.73577 23.8702 8.9507 24.3783 8.7744Z" fill="white"/>
<path id="Vector_4" d="M14.5993 14.0363C14.7887 13.9956 14.9811 13.976 15.175 13.9791C21.5405 13.9836 27.906 13.976 34.2714 13.9836C35.0996 13.9354 35.8512 14.6918 35.8046 15.5176C35.758 16.2604 35.9925 17.1329 35.4348 17.7387C35.1522 18.0867 34.7133 18.26 34.2699 18.2314C27.8548 18.2344 21.4413 18.2344 15.0262 18.2314C14.1364 18.3188 13.3863 17.4313 13.4991 16.5693C13.5456 15.9395 13.3548 15.2297 13.738 14.6737C13.9274 14.3588 14.2461 14.1282 14.5993 14.0363ZM14.9179 15.397C14.9104 15.8852 14.9104 16.3719 14.9179 16.8602C21.4037 16.8782 27.8894 16.8797 34.3737 16.8556C34.3782 16.3719 34.3797 15.8882 34.3767 15.4045C27.8909 15.3819 21.4037 15.3895 14.9179 15.397Z" fill="white"/>
<path id="Vector_5" d="M15.8303 20.6936C16.8644 20.6213 17.9045 20.6771 18.9417 20.665C19.2182 20.6319 19.4828 20.7961 19.585 21.0553C19.8495 21.4923 19.4271 22.0905 18.9296 22.0453C17.9346 22.0438 16.9336 22.0905 15.9415 22.0197C15.2952 21.9277 15.2516 20.9212 15.8303 20.6936Z" fill="white"/>
<path id="Vector_6" d="M21.5329 20.6952C25.4274 20.6214 29.3309 20.6771 33.2298 20.6666C33.7439 20.6199 34.046 21.2934 33.792 21.7033C33.6522 22.0318 33.2283 22.0544 32.9217 22.0544C29.2151 22.0439 25.5086 22.0665 21.8035 22.0439C21.049 22.0936 20.84 20.9454 21.5329 20.6952Z" fill="white"/>
<path id="Vector_7" d="M15.9701 24.4638C16.9636 24.4276 17.9602 24.4517 18.9537 24.4517C19.349 24.4231 19.6316 24.7953 19.6797 25.1554C19.6391 25.5412 19.3204 25.8742 18.9221 25.8697C17.9451 25.8697 16.9651 25.9013 15.9896 25.8516C15.2501 25.7597 15.2411 24.5708 15.9701 24.4638Z" fill="white"/>
<path id="Vector_8" d="M21.6803 24.4623C25.4785 24.4291 29.2798 24.4578 33.0795 24.4472C33.5485 24.3719 33.9934 24.8405 33.8626 25.3076C33.819 25.6828 33.4207 25.8848 33.0765 25.8742C29.3684 25.8757 25.6574 25.8742 21.9493 25.8742C21.6412 25.8848 21.2865 25.7537 21.1707 25.4448C20.9392 25.0635 21.2579 24.515 21.6803 24.4623Z" fill="white"/>
<path id="Vector_9" d="M16.0002 28.264C16.9711 28.2233 17.9451 28.2504 18.9176 28.2489C19.3084 28.2293 19.6135 28.5578 19.6782 28.9255C19.6586 29.3052 19.349 29.6895 18.9462 29.6699C18.0398 29.6789 17.132 29.6699 16.2256 29.6744C15.916 29.7076 15.5673 29.5358 15.4711 29.2254C15.2907 28.8276 15.5628 28.3152 16.0002 28.264Z" fill="white"/>
<path id="Vector_10" d="M21.6968 28.2626C25.4905 28.2234 29.2873 28.2565 33.0825 28.246C33.5364 28.1963 33.9829 28.6137 33.8701 29.0823C33.8265 29.459 33.4433 29.7182 33.0795 29.6745C29.3639 29.6715 25.6498 29.6715 21.9343 29.6745C21.6081 29.7136 21.2654 29.5283 21.1527 29.2134C20.9498 28.8246 21.2819 28.3153 21.6968 28.2626Z" fill="white"/>
<path id="Vector_11" d="M15.8048 32.1335C16.5773 31.9603 17.392 32.1019 18.1796 32.0537C18.632 32.0838 19.2543 31.9226 19.5399 32.3852C19.8796 32.8101 19.4737 33.5033 18.9507 33.4746C17.9436 33.4716 16.9351 33.5003 15.931 33.4596C15.3313 33.3209 15.2306 32.3671 15.8048 32.1335Z" fill="white"/>
<path id="Vector_12" d="M21.5179 32.1276C21.7464 32.0266 22.0034 32.0643 22.2454 32.0522C25.8528 32.0613 29.4586 32.0507 33.0645 32.0568C33.3922 32.0357 33.7799 32.1969 33.8461 32.5525C34.0009 32.9639 33.6657 33.4853 33.2178 33.4732C29.409 33.4807 25.5987 33.4807 21.79 33.4732C21.07 33.4958 20.8295 32.3807 21.5179 32.1276Z" fill="white"/>
<path id="Vector_13" d="M19.1656 35.9746C19.4317 35.8691 19.7218 35.8646 20.0043 35.8616C23.1593 35.8661 26.3157 35.8601 29.4707 35.8646C29.9787 35.8435 30.5063 36.0695 30.7843 36.508C31.1977 37.0625 31.0023 37.7903 31.0474 38.4307C31.0955 38.9401 30.9166 39.4644 30.5138 39.7914C30.147 40.132 29.6165 40.1275 29.149 40.129C25.9986 40.1154 22.8481 40.138 19.6992 40.1184C18.8936 40.141 18.1901 39.3831 18.2548 38.5829C18.3089 37.8958 18.0789 37.1062 18.5178 36.508C18.6726 36.2699 18.9041 36.0846 19.1656 35.9746ZM19.6872 37.269C19.6737 37.7481 19.6737 38.2273 19.6782 38.708C22.9849 38.7125 26.2917 38.7005 29.5984 38.705C29.5909 38.2273 29.5909 37.7497 29.5939 37.272C26.2917 37.2765 22.9894 37.2675 19.6872 37.269Z" fill="white"/>
</g>
<g id="#c9d342ff">
<path id="Vector_14" d="M23.5185 7.92006C23.9198 7.41978 24.267 6.87883 24.6503 6.36499C25.0321 6.87581 25.3778 7.41225 25.7746 7.91102C25.9775 8.20787 26.3954 8.16567 26.69 8.04965C27.2957 7.80252 27.8879 7.52074 28.4982 7.28266C28.2727 8.568 28.0953 9.86239 27.8368 11.1417C25.713 11.1402 23.5876 11.1387 21.4638 11.1417C21.2038 9.86239 21.0279 8.568 20.8024 7.28266C21.4127 7.5102 21.9989 7.7965 22.6001 8.04663C22.8917 8.16266 23.3111 8.21088 23.5185 7.92006ZM24.3782 8.77444C23.8702 8.95074 23.8266 9.73581 24.2745 10.0055C24.727 10.3325 25.4033 9.91513 25.3372 9.36663C25.3372 8.89198 24.7961 8.5891 24.3782 8.77444Z" fill="#EA9610"/>
<path id="Vector_15" d="M19.6872 37.269C22.9894 37.2675 26.2917 37.2765 29.5939 37.272C29.5909 37.7497 29.5909 38.2273 29.5984 38.705C26.2917 38.7005 22.9849 38.7125 19.6782 38.708C19.6736 38.2273 19.6736 37.7481 19.6872 37.269Z" fill="#EA9610"/>
</g>
</g>
<defs>
<clipPath id="clip0_1_32">
<rect width="49" height="44" fill="white"/>
</clipPath>
</defs>
</svg>
