<svg width="18" height="18" viewBox="0 0 18 18" fill="none" xmlns="http://www.w3.org/2000/svg">
<path id="Shape" d="M12.0865 0.577917C11.3159 -0.192639 10.0666 -0.192639 9.29604 0.577917L0.577917 9.29604C-0.19264 10.0666 -0.192638 11.3159 0.577917 12.0865L1.45191 12.9605C1.91027 13.4188 2.56322 13.3403 2.96942 13.118C3.16936 13.0086 3.39883 12.9462 3.64457 12.9462C4.42295 12.9462 5.05395 13.5772 5.05395 14.3556C5.05395 14.6013 4.99154 14.8308 4.88214 15.0307C4.65988 15.4369 4.58132 16.0899 5.03969 16.5482L5.91353 17.4221C6.68409 18.1926 7.9334 18.1926 8.70396 17.4221L17.4221 8.70396C18.1926 7.9334 18.1926 6.68408 17.4221 5.91353L16.5482 5.03961C16.0899 4.58131 15.437 4.65978 15.0308 4.88196C14.8309 4.9913 14.6015 5.05367 14.3559 5.05367C13.5775 5.05367 12.9465 4.42267 12.9465 3.64429C12.9465 3.39863 13.0089 3.16922 13.1182 2.96932C13.3404 2.56313 13.4188 1.91028 12.9605 1.45199L12.0865 0.577917Z" fill="#202735"/>
</svg>
