<svg width="50" height="50" viewBox="0 0 50 50" fill="none" xmlns="http://www.w3.org/2000/svg">
<g id="Whatsapp">
<path id="Vector" opacity="0.2" d="M24.9538 49.8857C38.7354 49.8857 49.9076 38.7184 49.9076 24.9429C49.9076 11.1673 38.7354 0 24.9538 0C11.1722 0 0 11.1673 0 24.9429C0 38.7184 11.1722 49.8857 24.9538 49.8857Z" fill="white"/>
<path id="Vector_2" d="M11.4869 39.0519L13.5692 31.2892C12.3915 29.1566 11.777 26.7852 11.777 24.3625C11.777 16.4634 18.2118 10.0315 26.1144 10.0315C34.017 10.0315 40.4517 16.4634 40.4517 24.3625C40.4517 32.2617 34.017 38.6936 26.1144 38.6936C23.7419 38.6936 21.4035 38.0965 19.3041 36.9534L11.4869 39.0519ZM19.6626 34.0531L20.1575 34.3431C21.9668 35.4179 24.015 35.9809 26.0973 35.9809C32.5149 35.9809 37.7208 30.7603 37.7208 24.3625C37.7208 17.9477 32.4979 12.7442 26.0973 12.7442C19.6796 12.7442 14.4738 17.9648 14.4738 24.3625C14.4738 26.4781 15.0541 28.5595 16.1806 30.385L16.4879 30.8798L15.3272 35.2132L19.6626 34.0531Z" fill="white"/>
<path id="Vector_3" fill-rule="evenodd" clip-rule="evenodd" d="M31.4226 26.3589C30.8252 26.0007 30.0572 25.6083 29.3744 25.8983C28.8453 26.1201 28.5039 26.9561 28.1626 27.3826C27.9919 27.6044 27.77 27.6385 27.4969 27.5191C25.4999 26.7172 23.9638 25.3865 22.8543 23.5439C22.6666 23.2539 22.7007 23.0321 22.9226 22.7591C23.264 22.3667 23.6736 21.9231 23.759 21.3942C23.8443 20.8654 23.6054 20.2512 23.3835 19.7735C23.1104 19.1763 22.7861 18.3062 22.1887 17.965C21.6254 17.6579 20.9086 17.8285 20.4136 18.2209C19.5602 18.9204 19.1505 19.9953 19.1676 21.0871C19.1676 21.3942 19.2017 21.7013 19.2871 21.9914C19.4578 22.7079 19.7821 23.3733 20.1576 24.0045C20.4307 24.4822 20.7379 24.9429 21.0622 25.3865C22.1375 26.8366 23.4688 28.0991 25.0049 29.0545C25.773 29.5322 26.6094 29.9417 27.4628 30.2317C28.4186 30.5559 29.2891 30.88 30.3302 30.6924C31.4226 30.4876 32.4979 29.8052 32.9246 28.7645C33.0612 28.4574 33.1124 28.0991 33.0441 27.775C32.8905 27.0925 31.9859 26.6831 31.4226 26.3589Z" fill="white"/>
</g>
</svg>
